<svg id="Layer_1" data-name="Layer 1" xmlns="http://www.w3.org/2000/svg" viewBox="0 0 380 380"><defs><style>.cls-1{fill:red;}</style></defs><polygon class="cls-1" points="340.4 146.08 340.4 170.2 292.16 170.2 292.16 115.84 310.35 97.65 327.41 114.7 355.41 86.71 338.35 69.65 338.35 69.65 310.35 41.65 310.35 41.65 293.29 24.59 265.3 52.59 282.35 69.65 264.16 87.84 209.8 87.84 209.8 39.6 233.92 39.6 233.92 0 209.8 0 170.2 0 146.08 0 146.08 39.6 170.2 39.6 170.2 87.84 115.84 87.84 97.65 69.65 114.7 52.59 86.71 24.59 69.65 41.65 69.65 41.65 41.65 69.65 41.65 69.65 24.59 86.71 52.59 114.7 69.65 97.65 87.84 115.84 87.84 170.2 39.6 170.2 39.6 146.08 0 146.08 0 170.2 0 209.8 0 233.92 39.6 233.92 39.6 209.8 87.84 209.8 87.84 264.16 69.65 282.35 52.59 265.3 24.59 293.29 41.65 310.35 41.65 310.35 69.65 338.35 69.65 338.35 86.71 355.41 114.7 327.41 97.65 310.35 115.84 292.16 170.2 292.16 170.2 340.4 146.08 340.4 146.08 380 170.2 380 209.8 380 233.92 380 233.92 340.4 209.8 340.4 209.8 292.16 264.16 292.16 282.35 310.35 265.3 327.41 293.29 355.41 310.35 338.35 310.35 338.35 338.35 310.35 338.35 310.35 355.41 293.29 327.41 265.3 310.35 282.35 292.16 264.16 292.16 209.8 340.4 209.8 340.4 233.92 380 233.92 380 209.8 380 170.2 380 146.08 340.4 146.08"/></svg>