<?xml version="1.0" encoding="utf-8"?>
<!-- Generator: Adobe Illustrator 24.1.0, SVG Export Plug-In . SVG Version: 6.00 Build 0)  -->
<svg version="1.1" id="Layer_1" xmlns="http://www.w3.org/2000/svg" xmlns:xlink="http://www.w3.org/1999/xlink" x="0px" y="0px"
	 viewBox="0 0 425.4 221.5" style="enable-background:new 0 0 425.4 221.5;" xml:space="preserve">
<style type="text/css">
	.st0{fill:#FF0000;}
	.st1{fill:#FFFFFF;}
</style>
<path id="BG" class="st0" d="M425.4,221.5H0V39.9c0-9.2,6.2-17.3,15.2-19.7C25.2,17.6,47,12.6,80.1,8.2C120.8,2.7,165.4,0,212.7,0
	c47.4,0,92,2.7,132.6,8.2c33.1,4.4,54.9,9.5,64.9,12.1c8.9,2.3,15.2,10.4,15.2,19.7V221.5z M5,216.5h415.4V39.9
	c0-7-4.7-13.1-11.4-14.8c-9.9-2.6-31.5-7.6-64.3-12C304.3,7.7,259.9,5,212.7,5c-47.1,0-91.5,2.7-131.9,8.1
	c-32.8,4.4-54.4,9.4-64.3,12C9.7,26.9,5,32.9,5,39.9V216.5z M412.9,39.9c0-3.6-2.4-6.7-5.8-7.6c-19.2-5-85.2-19.8-194.4-19.8
	S37.5,27.3,18.3,32.3c-3.4,0.9-5.8,4-5.8,7.6V209h400.4V39.9z"/>
<path id="SNEK" class="st1" d="M212.7,154.6c-9.6,0-19.3,0.2-28.9,0.4c-11.8-20.1-23.5-39.9-35.3-59.6c0,20.4,0,40.8,0,61.2
	c-11.5,0.7-23,1.7-34.5,2.8c0-44.6,0-89.1,0-133.7c10-1,20.1-1.8,30.2-2.5c11.3,18.7,22.6,37.6,33.9,56.6c0-19.5,0-38.9,0-58.4
	c11.5-0.4,23.1-0.6,34.6-0.6C212.7,65.5,212.7,110.1,212.7,154.6z M304.2,158.7c-25.9-2.3-51.9-3.6-77.9-4c0-44.6,0-89.1,0-133.7
	c26,0.3,52,1.7,77.9,4c0,10.2,0,20.4,0,30.6c-14.4-1.3-28.8-2.3-43.3-2.9c0,6.8,0,13.6,0,20.4c14.4,0.7,28.9,1.7,43.3,2.9
	c0,10.1,0,20.3,0,30.4c-14.4-1.3-28.8-2.3-43.3-2.9c0,7.2,0,14.4,0,21.6c14.4,0.7,28.9,1.7,43.3,2.9
	C304.2,138.2,304.2,148.5,304.2,158.7z M404.3,172.6c-11.4-2.2-22.8-4.1-34.2-5.9c0-16.1,0-32.1,0-48.2c-6.5-1-13-2-19.5-2.8
	c0,16.1,0,32.1,0,48.2c-11.5-1.6-22.9-2.9-34.4-4.1c0-44.6,0-89.1,0-133.7c11.5,1.2,23,2.5,34.4,4.1c0,18.3,0,36.7,0,55
	c0.3,0,0.7,0.1,1,0.1c6.2-17.5,12.3-34.9,18.5-52.3c11.4,1.8,22.7,3.7,34.1,5.9c-7.2,18.2-14.5,36.5-21.8,54.8
	c0.7,0.1,1.4,0.1,2.2,0.2c9.8,1.7,19.8,11.8,19.8,23.8C404.3,136.1,404.3,154.4,404.3,172.6z M78.6,80.9c-7.2,1-14.5,2-21.7,3.1
	c0-6.8,0-13.6,0-20.4c13.9-2.2,27.9-4,41.9-5.6c0-5.5,0-11.1,0-16.6c0,0,0.8-14.2-14-12.3c-14.8,1.8-38.9,5.7-38.9,5.7
	C30.8,37.4,22.7,45,22.7,60.9c0,12.9,0,25.9,0,38.8c0,11.8,4.3,20,23.1,16.8c7.3-1.2,14.6-2.4,22-3.4c0,7.1,0,14.3,0,21.4
	c-15.1,2.2-30.1,4.7-45.1,7.6c0,10.2,0,20.4,0,30.6c18.6-3.6,37.3-6.6,56.1-9.1c15-2,23.4-8.5,23.4-23.9c0-12.9,0-25.9,0-38.8
	C102.1,84.8,94.6,78.8,78.6,80.9z M85.5,37.8c2.4-0.3,4.4,1.4,4.4,3.9c0,2.4-2,4.7-4.4,5c-2.4,0.3-4.4-1.4-4.4-3.9
	C81.1,40.4,83.1,38.2,85.5,37.8z"/>
<path id="TAGLINE" class="st1" d="M40.5,191.4c0,3.4-1.8,6.5-3.7,9.1h-4.4c-0.4-0.6-0.8-1.3-1.2-2.1h-0.1c-0.3,0.7-0.8,1.5-1.2,2.1
	h-4.4c-1.7-2.5-3.7-5.4-3.7-9v-8.4h4.5v7.7c0,2.3,0.8,4.4,1.4,5.5h0.1c0.3-0.6,0.9-2,1-3.2c-0.1-0.6-0.2-1-0.2-1.6v-8.4h4.5v7.7
	c0,2.3,0.8,4.4,1.4,5.5h0c0.6-1.1,1.4-3.5,1.4-5.5v-7.7h4.5V191.4z M54.2,200.5h-4.5v-6.8h-3.1v6.8h-4.5v-17.4h4.5v6.6h3.1v-6.6h4.5
	V200.5z M67.8,200.5h-4.5v-4.7h-2.9v4.7h-4.5v-14.5c0-2.1,1.1-2.8,3.1-2.8h8.8V200.5z M63.3,191.9v-4.8h-2.9v4.8H63.3z M80.9,187.1
	h-3.7v13.4h-4.5v-13.4H69v-4h11.9V187.1z M99.2,197.7c0,1.9-1.1,2.7-3,2.7h-8.8v-17.4h8.8c1.8,0,3,0.8,3,2.8V197.7z M94.7,196.5
	v-9.4h-2.9v9.4H94.7z M105.4,200.5H101v-17.4h4.5V200.5z M119,197.7c0,1.9-1.1,2.7-3,2.7h-8.8v-17.4h8.8c1.8,0,3,0.8,3,2.8V197.7z
	 M114.6,196.5v-9.4h-2.9v9.4H114.6z M137.4,187.1h-3.7v13.4h-4.5v-13.4h-3.7v-4h11.9V187.1z M150.7,200.5h-4.5v-6.8h-3.1v6.8h-4.5
	v-17.4h4.5v6.6h3.1v-6.6h4.5V200.5z M162.6,200.5h-10.1v-17.4h10.1v4H157v2.7h5.6v4H157v2.8h5.6V200.5z M181.2,200.5h-4.5v-4.7h-2.9
	v4.7h-4.5v-14.5c0-2.1,1.1-2.8,3.1-2.8h8.8V200.5z M176.7,191.9v-4.8h-2.9v4.8H176.7z M194.8,193.4c0,2.1-1.1,2.8-3.1,2.8h-4.3v4.3
	H183v-17.4h8.7c2,0,3.1,0.8,3.1,2.8V193.4z M190.3,192.2v-5.2h-2.8v5.2H190.3z M208.1,193.4c0,2.1-1.1,2.8-3.1,2.8h-4.3v4.3h-4.5
	v-17.4h8.7c2,0,3.1,0.8,3.1,2.8V193.4z M203.6,192.2v-5.2h-2.8v5.2H203.6z M219.8,200.5h-10.1v-17.4h4.5v13.4h5.6V200.5z
	 M231.2,200.5h-10.1v-17.4h10.1v4h-5.6v2.7h5.6v4h-5.6v2.8h5.6V200.5z M248,200.5h-10.1v-17.4H248v4h-5.6v2.7h5.6v4h-5.6v2.8h5.6
	V200.5z M261.2,191.4c0,3.4-1.8,6.5-3.7,9.1H253c-1.7-2.5-3.7-5.4-3.7-9v-8.4h4.5v7.7c0,2.8,1.3,5.1,1.5,5.5
	c0.6-1.2,1.3-3.5,1.3-5.5v-7.7h4.5V191.4z M272.8,200.5h-10.1v-17.4h10.1v4h-5.6v2.7h5.6v4h-5.6v2.8h5.6V200.5z M285.8,200.5h-4.5
	v-5.8h-2.5v5.8h-4.5v-17.4h8.4c2,0,3.1,0.8,3.1,2.8v4.5c0,1.3-0.6,1.9-1.6,2.2v0c1,0.1,1.6,0.7,1.6,2V200.5z M281.4,190.7v-3.6h-2.5
	v3.6H281.4z M304.7,197.7c0,1.9-1.1,2.7-3,2.7h-8.8v-17.4h8.8c1.8,0,3,0.8,3,2.8V197.7z M300.2,196.5v-9.4h-2.9v9.4H300.2z
	 M318.2,197.7c0,1.9-1,2.7-3,2.7h-5.8c-1.9,0-3-0.8-3-2.7v-11.9c0-1.8,1-2.8,3-2.8h5.8c1.9,0,3,0.8,3,2.8V197.7z M313.7,196.5v-9.4
	h-2.8v9.4H313.7z M336.6,187.1h-3.7v13.4h-4.5v-13.4h-3.7v-4h11.9V187.1z M349.6,197.7c0,1.9-1,2.7-3,2.7h-5.8c-1.9,0-3-0.8-3-2.7
	v-11.9c0-1.8,1-2.8,3-2.8h5.8c1.9,0,3,0.8,3,2.8V197.7z M345.2,196.5v-9.4h-2.8v9.4H345.2z M368.2,191.4c0,2.1-1.1,2.8-3.1,2.8h-0.6
	v6.3H360v-6.3h-0.7c-2,0-3-0.7-3-2.8v-8.3h4.5v7.1h2.9v-7.1h4.5V191.4z M381.4,197.7c0,1.9-1,2.7-3,2.7h-5.8c-1.9,0-3-0.8-3-2.7
	v-11.9c0-1.8,1-2.8,3-2.8h5.8c1.9,0,3,0.8,3,2.8V197.7z M376.9,196.5v-9.4h-2.8v9.4H376.9z M395,197.6c0,2.1-1.1,2.8-3.1,2.8h-5.7
	c-2,0-3-0.8-3-2.8v-14.5h4.5v13.4h2.8v-13.4h4.5V197.6z M406.5,190.6c0,2.1-1.3,2.7-2.6,2.7h-1.5l-0.2,1.6h-3.6l-0.4-5.5h3.8v-2.3
	h-5.5v-4h6.9c2,0,3.1,0.8,3.1,2.8V190.6z M402.6,200.5h-4.5v-4h4.5V200.5z"/>
</svg>
